<?xml version="1.0" encoding="UTF-8" standalone="no"?>
<svg
   width="16"
   height="16"
   version="1.1"
   id="svg1"
   sodipodi:docname="Clean.svg"
   inkscape:version="1.4.2 (ebf0e940d0, 2025-05-08)"
   xmlns:inkscape="http://www.inkscape.org/namespaces/inkscape"
   xmlns:sodipodi="http://sodipodi.sourceforge.net/DTD/sodipodi-0.dtd"
   xmlns="http://www.w3.org/2000/svg"
   xmlns:svg="http://www.w3.org/2000/svg">
  <defs
     id="defs1" />
  <sodipodi:namedview
     id="namedview1"
     pagecolor="#ffffff"
     bordercolor="#666666"
     borderopacity="1.0"
     inkscape:showpageshadow="2"
     inkscape:pageopacity="0.0"
     inkscape:pagecheckerboard="0"
     inkscape:deskcolor="#d1d1d1"
     showgrid="true"
     inkscape:zoom="46.72619"
     inkscape:cx="5.5857325"
     inkscape:cy="10.732739"
     inkscape:window-width="3436"
     inkscape:window-height="1389"
     inkscape:window-x="0"
     inkscape:window-y="49"
     inkscape:window-maximized="1"
     inkscape:current-layer="svg1">
    <inkscape:grid
       id="grid1"
       units="px"
       originx="0"
       originy="0"
       spacingx="1"
       spacingy="1"
       empcolor="#3f3fff"
       empopacity="0.25098039"
       color="#3f3fff"
       opacity="0.1254902"
       empspacing="5"
       enabled="true"
       visible="true" />
  </sodipodi:namedview>
  <path
     id="path1"
     d="M 8 1 A 1 1 0 0 0 7 2 L 7 7 L 5 7 C 3.892 7 3 7.892 3 9 L 9 9 L 9 10 L 13 10 L 13 9 C 13 7.892 12.108 7 11 7 L 9 7 L 9 2 A 1 1 0 0 0 8 1 z M 9 11 L 9 14.400391 L 13 14 L 13 11 L 9 11 z "
     style="fill:#e0e0e0;fill-opacity:1" />
  <path
     style="fill:#e0e0e0;stroke-width:3.77953;stroke-linejoin:round;paint-order:fill markers stroke"
     d="m 1,15 v -5 h 3 v 1 H 2 v 4 z"
     id="path2"
     sodipodi:nodetypes="ccccccc" />
  <path
     style="fill:#e0e0e0;stroke-width:3.77953;stroke-linejoin:round;paint-order:fill markers stroke"
     d="m 5,10 h 3 v 1 H 6 v 1 h 2 v 3 H 5 V 14 H 7 V 13 H 5 Z"
     id="path3" />
</svg>
